<svg xmlns:xlink="http://www.w3.org/1999/xlink" xmlns="http://www.w3.org/2000/svg" version="1.1" viewBox="0.0 0.0 342.23884514435696 344.29133858267716" stroke-linecap="square" fill="none"><defs>
        <style xmlns="http://www.w3.org/2000/svg">
            @import url("https://fonts.googleapis.com/css?family=Source+Code+Pro");
        </style>
    </defs>
    
    <clipPath id="p.0">
        <path d="m0 0l342 0l0 342l-342 0l0 -342z" clip-rule="nonzero"/>
    </clipPath>
    <g xmlns="http://www.w3.org/2000/svg" clip-path="url(#p.0)">
    <path fill="#000000" fill-opacity="0.0" d="m0 0l342 0l0 342-342 0z" fill-rule="evenodd"/>
        <path fill="#000000" fill-opacity="0.0" d="m0 0l342.23883 0l0 344.29135l-342.23883 0z" fill-rule="evenodd"/>
        <path fill="#273244" d="m8.347769 172.14568l0 0c0 -90.73126 72.87535 -164.28348 162.77165 -164.28348l0 0c43.16974 0 84.571335 17.308388 115.096954 48.11751c30.525604 30.809124 47.674713 72.59526 47.674713 116.165955l0 0c0 90.73125 -72.87537 164.28346 -162.77167 164.28346l0 0c-89.89629 0 -162.77165 -73.552216 -162.77165 -164.28346z" fill-rule="evenodd"/>
        <path stroke="#ffffff" stroke-width="12.0" stroke-linejoin="round" stroke-linecap="butt" d="m8.347769 172.14568l0 0c0 -90.73126 72.87535 -164.28348 162.77165 -164.28348l0 0c43.16974 0 84.571335 17.308388 115.096954 48.11751c30.525604 30.809124 47.674713 72.59526 47.674713 116.165955l0 0c0 90.73125 -72.87537 164.28346 -162.77167 164.28346l0 0c-89.89629 0 -162.77165 -73.552216 -162.77165 -164.28346z" fill-rule="evenodd"/>
        <path fill="#000000" fill-opacity="0.0" d="m54.734245 119.865326l0 0c0 -9.717323 3.8550987 -19.036652 10.717209 -25.90783c6.862114 -6.8711853 16.169144 -10.731377 25.873634 -10.731377l0 36.639206z" fill-rule="evenodd"/>
        <path fill="#000000" fill-opacity="0.0" d="m54.734245 119.865326l0 0c0 -9.717323 3.8550987 -19.036652 10.717209 -25.90783c6.862114 -6.8711853 16.169144 -10.731377 25.873634 -10.731377" fill-rule="evenodd"/>
        <path stroke="#6fa5bc" stroke-width="16.0" stroke-linejoin="round" stroke-linecap="butt" d="m54.734245 119.865326l0 0c0 -9.717323 3.8550987 -19.036652 10.717209 -25.90783c6.862114 -6.8711853 16.169144 -10.731377 25.873634 -10.731377" fill-rule="evenodd"/>
        <path fill="#000000" fill-opacity="0.0" d="m91.32509 261.06522l0 0c-9.704491 0 -19.01152 -3.860199 -25.873634 -10.731369c-6.86211 -6.8711853 -10.717209 -16.190506 -10.717209 -25.907837l36.590843 0z" fill-rule="evenodd"/>
        <path fill="#000000" fill-opacity="0.0" d="m91.32509 261.06522l0 0c-9.704491 0 -19.01152 -3.860199 -25.873634 -10.731369c-6.86211 -6.8711853 -10.717209 -16.190506 -10.717209 -25.907837" fill-rule="evenodd"/>
        <path stroke="#6fa5bc" stroke-width="16.0" stroke-linejoin="round" stroke-linecap="butt" d="m91.32509 261.06522l0 0c-9.704491 0 -19.01152 -3.860199 -25.873634 -10.731369c-6.86211 -6.8711853 -10.717209 -16.190506 -10.717209 -25.907837" fill-rule="evenodd"/>
        <path fill="#000000" fill-opacity="0.0" d="m54.734245 119.865326l0 104.56073" fill-rule="evenodd"/>
        <path stroke="#6fa5bc" stroke-width="16.0" stroke-linejoin="round" stroke-linecap="butt" d="m54.734245 119.865326l0 104.56073" fill-rule="evenodd"/>
        <path fill="#000000" fill-opacity="0.0" d="m60.465103 172.14537l-32.31337 0" fill-rule="evenodd"/>
        <path stroke="#6fa5bc" stroke-width="16.0" stroke-linejoin="round" stroke-linecap="butt" d="m60.465103 172.14537l-32.31337 0" fill-rule="evenodd"/>
        <path fill="#000000" fill-opacity="0.0" d="m287.5046 224.42601l0 0c0 9.717331 -3.8551025 19.036652 -10.717224 25.907837c-6.8621216 6.87117 -16.169128 10.731369 -25.873627 10.731369l0 -36.639206z" fill-rule="evenodd"/>
        <path fill="#000000" fill-opacity="0.0" d="m287.5046 224.42601l0 0c0 9.717331 -3.8551025 19.036652 -10.717224 25.907837c-6.8621216 6.87117 -16.169128 10.731369 -25.873627 10.731369" fill-rule="evenodd"/>
        <path stroke="#6fa5bc" stroke-width="16.0" stroke-linejoin="round" stroke-linecap="butt" d="m287.5046 224.42601l0 0c0 9.717331 -3.8551025 19.036652 -10.717224 25.907837c-6.8621216 6.87117 -16.169128 10.731369 -25.873627 10.731369" fill-rule="evenodd"/>
        <path fill="#000000" fill-opacity="0.0" d="m250.91376 83.22612l0 0c9.704498 0 19.011505 3.8601913 25.873627 10.731377c6.8621216 6.8711777 10.717224 16.190506 10.717224 25.90783l-36.59085 0z" fill-rule="evenodd"/>
        <path fill="#000000" fill-opacity="0.0" d="m250.91376 83.22612l0 0c9.704498 0 19.011505 3.8601913 25.873627 10.731377c6.8621216 6.8711777 10.717224 16.190506 10.717224 25.90783" fill-rule="evenodd"/>
        <path stroke="#6fa5bc" stroke-width="16.0" stroke-linejoin="round" stroke-linecap="butt" d="m250.91376 83.22612l0 0c9.704498 0 19.011505 3.8601913 25.873627 10.731377c6.8621216 6.8711777 10.717224 16.190506 10.717224 25.90783" fill-rule="evenodd"/>
        <path fill="#000000" fill-opacity="0.0" d="m287.5046 224.42601l0 -104.56073" fill-rule="evenodd"/>
        <path stroke="#6fa5bc" stroke-width="16.0" stroke-linejoin="round" stroke-linecap="butt" d="m287.5046 224.42601l0 -104.56073" fill-rule="evenodd"/>
        <path fill="#000000" fill-opacity="0.0" d="m281.77374 172.14598l32.313385 0" fill-rule="evenodd"/>
        <path stroke="#6fa5bc" stroke-width="16.0" stroke-linejoin="round" stroke-linecap="butt" d="m281.77374 172.14598l32.313385 0" fill-rule="evenodd"/>
        <text x="50%" y="50%" dominant-baseline="middle" text-anchor="middle" style="&#10;    fill: white;&#10;    font-family: Source Code Pro, Helvetica, Arial;&#10;    text-align: center;&#10;    vertical-align: middle;&#10;    font-size: 99px;&#10;">
        1983849649309238__REPLACEME__1983849649309238
        </text>    
    </g>
</svg>