<svg xmlns:xlink="http://www.w3.org/1999/xlink" xmlns="http://www.w3.org/2000/svg" version="1.1"
    viewBox="0.0 0.0 342.23884514435696 344.29133858267716" stroke-linecap="square" fill="none"
    style="&#10;    /* background: black; */&#10;">
    <defs>
        <style xmlns="http://www.w3.org/2000/svg">
            @import url("https://fonts.googleapis.com/css?family=Source+Code+Pro");
        </style>
    </defs>

    <clipPath id="p.0">
        <path d="m0 0l342 0l0 342l-342 0l0 -342z" clip-rule="nonzero" />
    </clipPath>
    <g xmlns="http://www.w3.org/2000/svg" clip-path="url(#p.0)">
        <path fill="#000000" fill-opacity="0.0" d="m0 0l342.23883 0l0 344.29135l-342.23883 0z" fill-rule="evenodd" />
        <path fill="#273244"
            d="m87.48819 83.884514l168.80054 0l21.099731 10.808403l10.293945 21.614166l-1.545929 123.514435l-16.981628 17.496078l-17.498672 4.118103l-160.56693 0l-25.72966 -10.808395l-11.322834 -23.157486l0.5144348 -115.792656l13.895016 -22.645668z"
            fill-rule="evenodd" />
        <path fill="#273244"
            d="m371.68372 158.6181l0 0c0 -90.73125 72.87537 -164.28346 162.77167 -164.28346l0 0c43.16974 0 84.57135 17.308386 115.096924 48.117516c30.525635 30.809124 47.674744 72.59526 47.674744 116.16594l0 0c0 90.73126 -72.87537 164.28348 -162.77167 164.28348l0 0c-89.8963 0 -162.77167 -73.552216 -162.77167 -164.28348z"
            fill-rule="evenodd" />
        <path stroke="#ffffff" stroke-width="12.0" stroke-linejoin="round" stroke-linecap="butt"
            d="m371.68372 158.6181l0 0c0 -90.73125 72.87537 -164.28346 162.77167 -164.28346l0 0c43.16974 0 84.57135 17.308386 115.096924 48.117516c30.525635 30.809124 47.674744 72.59526 47.674744 116.16594l0 0c0 90.73126 -72.87537 164.28348 -162.77167 164.28348l0 0c-89.8963 0 -162.77167 -73.552216 -162.77167 -164.28348z"
            fill-rule="evenodd" />
        <path fill="#000000" fill-opacity="0.0"
            d="m54.734245 119.865326l0 0c0 -9.717323 3.8550987 -19.036652 10.717209 -25.90783c6.862114 -6.8711853 16.169144 -10.731377 25.873634 -10.731377l0 36.639206z"
            fill-rule="evenodd" />
        <path fill="#000000" fill-opacity="0.0"
            d="m54.734245 119.865326l0 0c0 -9.717323 3.8550987 -19.036652 10.717209 -25.90783c6.862114 -6.8711853 16.169144 -10.731377 25.873634 -10.731377"
            fill-rule="evenodd" />
        <path stroke="#6fa5bc" stroke-width="16.0" stroke-linejoin="round" stroke-linecap="butt"
            d="m54.734245 119.865326l0 0c0 -9.717323 3.8550987 -19.036652 10.717209 -25.90783c6.862114 -6.8711853 16.169144 -10.731377 25.873634 -10.731377"
            fill-rule="evenodd" />
        <path fill="#000000" fill-opacity="0.0"
            d="m91.32509 261.06522l0 0c-9.704491 0 -19.01152 -3.860199 -25.873634 -10.731369c-6.86211 -6.8711853 -10.717209 -16.190506 -10.717209 -25.907837l36.590843 0z"
            fill-rule="evenodd" />
        <path fill="#000000" fill-opacity="0.0"
            d="m91.32509 261.06522l0 0c-9.704491 0 -19.01152 -3.860199 -25.873634 -10.731369c-6.86211 -6.8711853 -10.717209 -16.190506 -10.717209 -25.907837"
            fill-rule="evenodd" />
        <path stroke="#6fa5bc" stroke-width="16.0" stroke-linejoin="round" stroke-linecap="butt"
            d="m91.32509 261.06522l0 0c-9.704491 0 -19.01152 -3.860199 -25.873634 -10.731369c-6.86211 -6.8711853 -10.717209 -16.190506 -10.717209 -25.907837"
            fill-rule="evenodd" />
        <path fill="#000000" fill-opacity="0.0" d="m54.734245 119.865326l0 104.56073" fill-rule="evenodd" />
        <path stroke="#6fa5bc" stroke-width="16.0" stroke-linejoin="round" stroke-linecap="butt"
            d="m54.734245 119.865326l0 104.56073" fill-rule="evenodd" />
        <path fill="#000000" fill-opacity="0.0" d="m60.465103 172.14537l-32.31337 0" fill-rule="evenodd" />
        <path stroke="#6fa5bc" stroke-width="16.0" stroke-linejoin="round" stroke-linecap="butt"
            d="m60.465103 172.14537l-32.31337 0" fill-rule="evenodd" />
        <path fill="#000000" fill-opacity="0.0"
            d="m287.5046 224.42601l0 0c0 9.717331 -3.8551025 19.036652 -10.717224 25.907837c-6.8621216 6.87117 -16.169128 10.731369 -25.873627 10.731369l0 -36.639206z"
            fill-rule="evenodd" />
        <path fill="#000000" fill-opacity="0.0"
            d="m287.5046 224.42601l0 0c0 9.717331 -3.8551025 19.036652 -10.717224 25.907837c-6.8621216 6.87117 -16.169128 10.731369 -25.873627 10.731369"
            fill-rule="evenodd" />
        <path stroke="#6fa5bc" stroke-width="16.0" stroke-linejoin="round" stroke-linecap="butt"
            d="m287.5046 224.42601l0 0c0 9.717331 -3.8551025 19.036652 -10.717224 25.907837c-6.8621216 6.87117 -16.169128 10.731369 -25.873627 10.731369"
            fill-rule="evenodd" />
        <path fill="#000000" fill-opacity="0.0"
            d="m250.91376 83.22612l0 0c9.704498 0 19.011505 3.8601913 25.873627 10.731377c6.8621216 6.8711777 10.717224 16.190506 10.717224 25.90783l-36.59085 0z"
            fill-rule="evenodd" />
        <path fill="#000000" fill-opacity="0.0"
            d="m250.91376 83.22612l0 0c9.704498 0 19.011505 3.8601913 25.873627 10.731377c6.8621216 6.8711777 10.717224 16.190506 10.717224 25.90783"
            fill-rule="evenodd" />
        <path stroke="#6fa5bc" stroke-width="16.0" stroke-linejoin="round" stroke-linecap="butt"
            d="m250.91376 83.22612l0 0c9.704498 0 19.011505 3.8601913 25.873627 10.731377c6.8621216 6.8711777 10.717224 16.190506 10.717224 25.90783"
            fill-rule="evenodd" />
        <path fill="#000000" fill-opacity="0.0" d="m287.5046 224.42601l0 -104.56073" fill-rule="evenodd" />
        <path stroke="#6fa5bc" stroke-width="16.0" stroke-linejoin="round" stroke-linecap="butt"
            d="m287.5046 224.42601l0 -104.56073" fill-rule="evenodd" />
        <path fill="#000000" fill-opacity="0.0" d="m281.77374 172.14598l32.313385 0" fill-rule="evenodd" />
        <path stroke="#6fa5bc" stroke-width="16.0" stroke-linejoin="round" stroke-linecap="butt"
            d="m281.77374 172.14598l32.313385 0" fill-rule="evenodd" />
        <text x="50%" y="51%" dominant-baseline="middle" text-anchor="middle"
            style="&#10;    fill: white;&#10;    font-family: Source Code Pro, Helvetica, Arial;&#10;    text-align: center;&#10;    vertical-align: middle;&#10;    font-size: 80px;&#10;">
            1983849649309238__REPLACEME__1983849649309238
        </text>

    </g>
</svg>