        <svg version="1.1" viewBox="0.0 0.0 287.68241469816275 195.04724409448818" fill="none" stroke="none"
        stroke-linecap="square" stroke-miterlimit="10" xmlns:xlink="http://www.w3.org/1999/xlink"
        xmlns="http://www.w3.org/2000/svg">
        <defs>
            <style xmlns="http://www.w3.org/2000/svg">
                @import url("https://fonts.googleapis.com/css?family=Source+Code+Pro");
            </style>
        </defs>
        <clipPath id="p.0">
            <path d="m0 0l287.6824 0l0 195.04724l-287.6824 0l0 -195.04724z" clip-rule="nonzero" />
        </clipPath>
        <g clip-path="url(#p.0)">
            <path fill="#000000" fill-opacity="0.0" d="m0 0l287.6824 0l0 195.04724l-287.6824 0z" fill-rule="evenodd"/>
            <path fill="#273244" d="m60.212025 8.747432l168.80052 0l21.099747 10.808398l10.293961 21.614172l-1.545929 123.514435l-16.981628 17.496063l-17.498688 4.1181183l-160.56693 0l-25.729656 -10.808395l-11.322836 -23.157486l0.5144348 -115.79265l13.895014 -22.645668z" fill-rule="evenodd"/>
            <path fill="#000000" fill-opacity="0.0" d="m27.458082 44.72824l0 0c0 -9.7173195 3.855095 -19.036646 10.717211 -25.907831c6.862114 -6.8711834 16.169136 -10.731374 25.873634 -10.731374l0 36.639206z" fill-rule="evenodd"/>
            <path fill="#000000" fill-opacity="0.0" d="m27.458082 44.72824l0 0c0 -9.7173195 3.855095 -19.036646 10.717211 -25.907831c6.862114 -6.8711834 16.169136 -10.731374 25.873634 -10.731374" fill-rule="evenodd"/>
            <path stroke="#6fa5bc" stroke-width="16.0" stroke-linejoin="round" stroke-linecap="butt" d="m27.458082 44.72824l0 0c0 -9.7173195 3.855095 -19.036646 10.717211 -25.907831c6.862114 -6.8711834 16.169136 -10.731374 25.873634 -10.731374" fill-rule="evenodd"/>
            <path fill="#000000" fill-opacity="0.0" d="m64.04893 185.92813l0 0c-9.704498 0 -19.01152 -3.8601837 -25.873634 -10.731369c-6.862116 -6.8711853 -10.717211 -16.190506 -10.717211 -25.907837l36.590843 0z" fill-rule="evenodd"/>
            <path fill="#000000" fill-opacity="0.0" d="m64.04893 185.92813l0 0c-9.704498 0 -19.01152 -3.8601837 -25.873634 -10.731369c-6.862116 -6.8711853 -10.717211 -16.190506 -10.717211 -25.907837" fill-rule="evenodd"/>
            <path stroke="#6fa5bc" stroke-width="16.0" stroke-linejoin="round" stroke-linecap="butt" d="m64.04893 185.92813l0 0c-9.704498 0 -19.01152 -3.8601837 -25.873634 -10.731369c-6.862116 -6.8711853 -10.717211 -16.190506 -10.717211 -25.907837" fill-rule="evenodd"/>
            <path fill="#000000" fill-opacity="0.0" d="m27.458082 44.72824l0 104.56073" fill-rule="evenodd"/>
            <path stroke="#6fa5bc" stroke-width="16.0" stroke-linejoin="round" stroke-linecap="butt" d="m27.458082 41.72824l0 109.56073" fill-rule="evenodd"/>
            <path fill="#000000" fill-opacity="0.0" d="m33.18894 97.008286l-32.313374 0" fill-rule="evenodd"/>
            <path stroke="#6fa5bc" stroke-width="16.0" stroke-linejoin="round" stroke-linecap="butt" d="m33.18894 97.008286l-32.313374 0" fill-rule="evenodd"/>
            <path fill="#000000" fill-opacity="0.0" d="m260.22842 149.28893l0 0c0 9.717331 -3.8551025 19.036652 -10.717209 25.907837c-6.8621063 6.8711853 -16.169128 10.731369 -25.873627 10.731369l0 -36.639206z" fill-rule="evenodd"/>
            <path fill="#000000" fill-opacity="0.0" d="m260.22842 149.28893l0 0c0 9.717331 -3.8551025 19.036652 -10.717209 25.907837c-6.8621063 6.8711853 -16.169128 10.731369 -25.873627 10.731369" fill-rule="evenodd"/>
            <path stroke="#6fa5bc" stroke-width="16.0" stroke-linejoin="round" stroke-linecap="butt" d="m260.22842 149.28893l0 0c0 9.717331 -3.8551025 19.036652 -10.717209 25.907837c-6.8621063 6.8711853 -16.169128 10.731369 -25.873627 10.731369" fill-rule="evenodd"/>
            <path fill="#000000" fill-opacity="0.0" d="m223.63759 8.089036l0 0c9.704498 0 19.01152 3.8601904 25.873627 10.731374c6.8621063 6.8711853 10.717209 16.190512 10.717209 25.907831l-36.590836 0z" fill-rule="evenodd"/>
            <path fill="#000000" fill-opacity="0.0" d="m223.63759 8.089036l0 0c9.704498 0 19.01152 3.8601904 25.873627 10.731374c6.8621063 6.8711853 10.717209 16.190512 10.717209 25.907831" fill-rule="evenodd"/>
            <path stroke="#6fa5bc" stroke-width="16.0" stroke-linejoin="round" stroke-linecap="butt" d="m223.63759 8.089036l0 0c9.704498 0 19.01152 3.8601904 25.873627 10.731374c6.8621063 6.8711853 10.717209 16.190512 10.717209 25.907831" fill-rule="evenodd"/>
            <path fill="#000000" fill-opacity="0.0" d="m260.22842 149.28893l0 -104.56073" fill-rule="evenodd"/>
            <path stroke="#6fa5bc" stroke-width="16.0" stroke-linejoin="round" stroke-linecap="butt" d="m260.22842 153.28893l0 -112.56073" fill-rule="evenodd"/>
            <path fill="#000000" fill-opacity="0.0" d="m254.49757 97.00889l32.31337 0" fill-rule="evenodd"/>
            <path stroke="#6fa5bc" stroke-width="16.0" stroke-linejoin="round" stroke-linecap="butt" d="m254.49757 97.00889l32.31337 0" fill-rule="evenodd"/>
            <text x="49%" y="52%" dominant-baseline="middle" text-anchor="middle"
                style="&#10;    fill: white;&#10;    font-family: Source Code Pro, Helvetica, Arial;&#10;    text-align: center;&#10;    vertical-align: middle;&#10;    font-size: 60px;&#10;">
                SHELL
            </text>
        </g>
    </svg>
